<?xml version="1.0" encoding="iso-8859-1"?>
<!-- Uploaded to: SVG Repo, www.svgrepo.com, Generator: SVG Repo Mixer Tools -->
<svg height="800px" width="800px" version="1.1" id="Layer_1" xmlns="http://www.w3.org/2000/svg" xmlns:xlink="http://www.w3.org/1999/xlink" 
	 viewBox="0 0 512 512" xml:space="preserve">
<path style="fill:#FDC794;" d="M52.91,291.31c0,19.421,15.89,35.31,35.31,35.31s35.31-15.89,35.31-35.31v44.138
	c0,19.421,15.89,35.31,35.31,35.31s35.31-15.89,35.31-35.31v35.31c0,19.421,15.89,35.31,35.31,35.31l0,0
	c19.421,0,35.31-15.89,35.31-35.31v-35.31V476.69c0,19.421,15.89,35.31,35.31,35.31l0,0c19.421,0,35.31-15.89,35.31-35.31V247.172
	l15.89,23.834c17.655,30.897,60.028,45.021,88.276,34.428c3.531-1.766,7.062-3.531,10.593-5.297
	c10.593-7.062,8.828-15.007,8.828-17.655c0-2.648-50.317-53.848-79.448-105.931c0,0-25.6-42.372-52.966-70.621V79.448
	C326.566,35.31,291.255,0,247.117,0h-88.276c-34.428,0-69.738,29.131-77.683,62.676c-1.766,7.945-5.297,19.421-10.593,25.6
	c-7.945,8.828-17.655,30.897-17.655,61.793V291.31z"/>
<g>
	<path style="fill:#F9A671;" d="M326.566,220.69c3.531,0,6.179,1.766,7.945,5.297l8.828,17.655c1.766,4.414,0,9.71-3.531,11.476
		c-4.414,1.766-9.71,0-11.476-3.531l-8.828-17.655c-1.766-4.414,0-9.71,3.531-11.476C323.917,220.69,324.8,220.69,326.566,220.69"/>
	<path style="fill:#F9A671;" d="M264.772,220.69c5.297,0,8.828,3.531,8.828,8.828v150.069c0,5.297-3.531,8.828-8.828,8.828
		c-5.297,0-8.828-3.531-8.828-8.828V229.517C255.945,224.221,259.476,220.69,264.772,220.69"/>
	<path style="fill:#F9A671;" d="M194.152,229.517c5.297,0,8.828,3.531,8.828,8.828v97.103c0,5.297-3.531,8.828-8.828,8.828
		s-8.828-3.531-8.828-8.828v-97.103C185.324,233.048,188.855,229.517,194.152,229.517"/>
	<path style="fill:#F9A671;" d="M123.531,220.69c5.297,0,8.828,3.531,8.828,8.828v61.793c0,5.297-3.531,8.828-8.828,8.828
		s-8.828-3.531-8.828-8.828v-61.793C114.703,224.221,118.234,220.69,123.531,220.69"/>
	<path style="fill:#F9A671;" d="M114.703,70.621c3.531,0,7.062,2.648,8.828,6.179c0.883,5.297-1.766,9.71-6.179,11.476l-5.297,0.883
		c-19.421,5.297-30.014,7.945-33.545,19.421c-1.766,4.414-6.179,7.062-11.476,5.297c-4.414-1.766-7.062-6.179-5.297-11.476
		c7.062-21.186,26.483-25.6,45.903-30.897l4.414-0.883C112.938,70.621,113.821,70.621,114.703,70.621"/>
	<path style="fill:#F9A671;" d="M282.428,70.621c1.766,0,3.531,0.883,5.297,1.766c5.297,4.414,9.71,7.945,15.007,11.476
		c7.062,4.414,13.241,9.71,20.303,15.89c3.531,3.531,3.531,8.828,0.883,12.359c-3.531,3.531-8.828,3.531-12.359,0.883
		c-6.179-5.297-12.359-9.71-18.538-14.124c-5.297-3.531-10.593-7.062-16.772-12.359c-3.531-3.531-4.414-8.828-0.883-12.359
		C277.131,71.503,279.779,70.621,282.428,70.621"/>
</g>
</svg>